#ifndef THRONES
#define THRONES

int gameThronesMelody[] = {
	NOTE_G3, NOTE_C3, NOTE_DS3, NOTE_F3, NOTE_G3, 
	NOTE_C3, NOTE_DS3, NOTE_F3, NOTE_G3, NOTE_C3, 
	NOTE_DS3, NOTE_F3, NOTE_G3, NOTE_C3, NOTE_DS3, 
	NOTE_F3, NOTE_G3, NOTE_C3, NOTE_E3, NOTE_F3, 
	NOTE_G3, NOTE_C3, NOTE_DS3, NOTE_F3, NOTE_G3, 
	NOTE_C3, NOTE_E3, NOTE_F3, NOTE_G3, NOTE_C3, 
	NOTE_DS3, NOTE_F3, NOTE_G4, NOTE_C4, NOTE_DS4, 
	NOTE_F4, NOTE_G4, NOTE_C4, NOTE_DS4, NOTE_F4, 
	NOTE_C3, NOTE_DS3, NOTE_F3, NOTE_G3, NOTE_C3, 
	NOTE_DS3, NOTE_F3, NOTE_G3, NOTE_C3, NOTE_DS3, 
	NOTE_F3, NOTE_G3, NOTE_C3, NOTE_DS3, NOTE_F3, 
	NOTE_G3, NOTE_F4, NOTE_AS4, NOTE_D4, NOTE_DS4, 
	NOTE_F4, NOTE_AS3, NOTE_DS4, NOTE_D4, NOTE_C3, 
	NOTE_DS3, NOTE_F3, NOTE_G3, NOTE_C3, NOTE_DS3, 
	NOTE_F3, NOTE_G3, NOTE_C3, NOTE_DS3, NOTE_F3, 
	NOTE_G3, NOTE_C3, NOTE_DS3, NOTE_F3, NOTE_G3, 
	NOTE_G5, NOTE_C4, NOTE_DS4, NOTE_F4, NOTE_G4, 
	NOTE_C4, NOTE_DS4, NOTE_F4, NOTE_C3, NOTE_DS3, 
	NOTE_F3, NOTE_G3, NOTE_C3, NOTE_DS3, NOTE_F3, 
	NOTE_G3, NOTE_C3, NOTE_DS3, NOTE_F3, NOTE_G3, 
	NOTE_C3, NOTE_DS3, NOTE_F3, NOTE_G3, NOTE_F4, 
	NOTE_AS4, NOTE_D4, NOTE_DS4, NOTE_F4, NOTE_AS3, 
	NOTE_DS4, NOTE_D4, NOTE_C3, NOTE_DS3, NOTE_F3, 
	NOTE_G3, NOTE_C3, NOTE_DS3, NOTE_F3, NOTE_G3, 
	NOTE_C3, NOTE_DS3, NOTE_F3, NOTE_G3, NOTE_C3, 
	NOTE_DS3, NOTE_F3, NOTE_G3, NOTE_G5, NOTE_C5, 
	NOTE_DS5, NOTE_F5, NOTE_G5, NOTE_C5, NOTE_DS5, 
	NOTE_F5, NOTE_C3, NOTE_DS3, NOTE_F3, NOTE_G3, 
	NOTE_C3, NOTE_DS3, NOTE_F3, NOTE_G3, NOTE_C3, 
	NOTE_DS3, NOTE_F3, NOTE_G3, NOTE_C3, NOTE_DS3, 
	NOTE_F3, NOTE_G3, NOTE_F5, NOTE_AS4, NOTE_D5, 
	NOTE_DS5, NOTE_D5, NOTE_AS4, NOTE_C3, NOTE_DS3, 
	NOTE_F3, NOTE_G3, NOTE_C3, NOTE_DS3, NOTE_F3, 
	NOTE_G3, NOTE_C3, NOTE_DS3, NOTE_F3, NOTE_G3, 
	NOTE_C3, NOTE_DS3, NOTE_F3, NOTE_G3, NOTE_C5, 
	NOTE_DS3, NOTE_F3, NOTE_G3, NOTE_C5, NOTE_DS3, 
	NOTE_F3, NOTE_G3, NOTE_AS4, NOTE_D3, NOTE_DS3, 
	NOTE_F3, NOTE_AS4, NOTE_D3, NOTE_DS3, NOTE_F3, 
	NOTE_GS4, NOTE_C3, NOTE_D3, NOTE_DS3, NOTE_GS4, 
	NOTE_C3, NOTE_D3, NOTE_DS3, NOTE_G4, NOTE_AS2, 
	NOTE_C3, NOTE_D3, NOTE_G4, NOTE_AS2, NOTE_C3, 
	NOTE_D3, NOTE_DS4, NOTE_G2, NOTE_GS2, NOTE_AS2, 
	NOTE_DS4, NOTE_G2, NOTE_GS2, NOTE_AS2, NOTE_DS4, 
	NOTE_G2, NOTE_G2, NOTE_DS4, NOTE_F4, NOTE_GS2, 
	NOTE_GS2, NOTE_F4, NOTE_C4, NOTE_DS3, NOTE_F3, 
	NOTE_G3, NOTE_C3, NOTE_DS3, NOTE_F3, NOTE_G3, 
	NOTE_C3, NOTE_DS3, NOTE_F3, NOTE_G3, NOTE_C3,
	NOTE_DS3, NOTE_F3, NOTE_G3, NOTE_C5, NOTE_DS3,
	NOTE_F3, NOTE_G3, NOTE_C5, NOTE_DS3, NOTE_F3,
	NOTE_G3, NOTE_AS4, NOTE_D3, NOTE_DS3, NOTE_F3,
	NOTE_AS4, NOTE_D3, NOTE_DS3, NOTE_F3, NOTE_GS4,
	NOTE_C3, NOTE_D3, NOTE_DS3, NOTE_GS4, NOTE_C3,
	NOTE_D3, NOTE_DS3, NOTE_G4, NOTE_AS2, NOTE_C3,
	NOTE_D3, NOTE_G4, NOTE_AS2, NOTE_C3, NOTE_D3,
	NOTE_DS4, NOTE_G2, NOTE_GS2, NOTE_AS2, NOTE_DS4,
	NOTE_G2, NOTE_GS2, NOTE_AS2, NOTE_DS4, NOTE_DS4,
	NOTE_D4, NOTE_D4, NOTE_C4, NOTE_DS3, NOTE_F3,
	NOTE_G3, NOTE_C3, NOTE_DS3, NOTE_F3, NOTE_G3,
	NOTE_C3, NOTE_DS3, NOTE_F3, NOTE_G3, NOTE_C3,
	NOTE_DS3, NOTE_F3, NOTE_G3, NOTE_C3, NOTE_DS3,
	NOTE_F3, NOTE_G3, NOTE_C3, NOTE_DS5, NOTE_F5,
	NOTE_G5, NOTE_C5, NOTE_DS5, NOTE_F5, NOTE_G5,
	NOTE_C5, NOTE_DS5, NOTE_F5, NOTE_G5, NOTE_G5
};


int gameThronesDelays[] = {
	400, 400, 200, 200, 400, 400, 200, 200, 400, 400,
	200, 200, 400, 400, 200, 200, 400, 400, 200, 200,
	400, 400, 200, 200, 400, 400, 200, 200, 400, 400,
	200, 200, 1200, 1200, 200, 200, 800, 800, 200, 200, 
	400, 200, 200, 400, 400, 200, 200, 400, 400, 200, 
	200, 400, 400, 200, 200, 400, 1200, 1200, 200, 200,
	800, 800, 200, 200, 400, 200, 200, 400, 400, 200, 
	200, 400, 400, 200, 200, 400, 400, 200, 200, 400, 
	1200, 1200, 200, 200, 800, 800, 200, 200, 400, 200,
	200, 400, 400, 200, 200, 400, 400, 200, 200, 400, 
	400, 200, 200, 400, 1200, 1200, 200, 200, 800, 800,
	200, 200, 400, 200, 200, 400, 400, 200, 200, 400,
	400, 200, 200, 400, 400, 200, 200, 400, 1200, 1200,
	200, 200, 800, 800, 200, 200, 400, 200, 200, 400, 
	400, 200, 200, 400, 400, 200, 200, 400, 400, 200,
	200, 400, 1200, 1200, 600, 600, 600, 600, 400, 200,
	200, 400, 400, 200, 200, 400, 400, 200, 200, 400,
	400, 200, 200, 400, 400, 200, 200, 400, 400, 200,
	200, 400, 400, 200, 200, 400, 400, 200, 200, 400,
	400, 200, 200, 400, 400, 200, 200, 400, 400, 200,
	200, 400, 400, 200, 200, 400, 400, 200, 200, 400,
	400, 200, 200, 400, 400, 200, 200, 400, 400, 200,
	200, 400, 400, 200, 200, 400, 400, 200, 200, 400,
	400, 200, 200, 400, 400, 200, 200, 400, 400, 200,
	200, 400, 400, 200, 200, 400, 400, 200, 200, 400,
	400, 200, 200, 400, 400, 200, 200, 400, 400, 200,
	200, 400, 400, 200, 200, 400, 400, 200, 200, 400,
	400, 200, 200, 400, 400, 200, 200, 400, 800, 400,
	800, 400, 400, 200, 200, 400, 400, 200, 200, 400,
	400, 200, 200, 400, 400, 200, 200, 400, 400, 200,
	200, 400, 400, 200, 200, 400, 400, 200, 200, 400,
	400, 200, 200, 400 ,400
};

int gameThronesTempos[] = {
	375, 375, 175, 175, 375, 375, 175, 175, 375, 
	375, 175, 175, 375, 375, 175, 175, 375, 375, 
	175, 175, 375, 375, 175, 175, 375, 375, 175, 
	175, 375, 375, 175, 175, 175, 175, 175, 175, 
	775, 775, 175, 175, 375, 175, 175, 375, 375, 
	175, 175, 375, 375, 175, 175, 375, 375, 175, 
	175, 375, 175, 175, 175, 175, 775, 775, 175, 
	175, 375, 175, 175, 375, 375, 175, 175, 375, 
	375, 175, 175, 375, 375, 175, 175, 375, 175, 
	175, 175, 175, 775, 775, 175, 175, 375, 175, 
	175, 375, 375, 175, 175, 375, 375, 175, 175, 
	375, 375, 175, 175, 375, 175, 175, 175, 175, 
	775, 775, 175, 175, 375, 175, 175, 375, 375, 
	175, 175, 375, 375, 175, 175, 375, 375, 175, 
	175, 375, 175, 175, 175, 175, 775, 775, 175, 
	175, 375, 175, 175, 375, 375, 175, 175, 375, 
	375, 175, 175, 375, 375, 175, 175, 375, 175, 
	175, 575, 575, 575, 575, 375, 175, 175, 375, 
	375, 175, 175, 375, 375, 175, 175, 375, 375, 
	175, 175, 375, 375, 175, 175, 375, 375, 175, 
	175, 375, 375, 175, 175, 375, 375, 175, 175, 
	375, 375, 175, 175, 375, 375, 175, 175, 375, 
	375, 175, 175, 375, 375, 175, 175, 375, 375, 
	175, 175, 375, 375, 175, 175, 375, 375, 175, 
	175, 375, 775, 175, 175, 375, 375, 175, 175, 
	375, 375, 175, 175, 375, 375, 175, 175, 375, 
	375, 175, 175, 375, 375, 175, 175, 375, 375, 
	175, 175, 375, 375, 175, 175, 375, 375, 175, 
	175, 375, 375, 175, 175, 375, 375, 175, 175, 
	375, 375, 175, 175, 375, 375, 175, 175, 375, 
	375, 175, 175, 375, 375, 175, 175, 375, 775, 
	375, 775, 375, 375, 175, 175, 375, 375, 175, 
	175, 375, 375, 175, 175, 375, 375, 175, 175, 
	375, 375, 175, 175, 375, 375, 175, 175, 375, 
	375, 175, 175, 375, 375, 175, 175, 375, 375
};

#endif